<?xml version="1.0" standalone="no"?><!DOCTYPE svg PUBLIC "-//W3C//DTD SVG 1.1//EN" "http://www.w3.org/Graphics/SVG/1.1/DTD/svg11.dtd"><svg t="1546684021984" class="icon" style="" viewBox="0 0 1024 1024" version="1.1" xmlns="http://www.w3.org/2000/svg" p-id="1914" xmlns:xlink="http://www.w3.org/1999/xlink" width="40" height="40"><defs><style type="text/css"></style></defs><path d="M1014.285714 337.485714c0-0.571429 0-1.028571-0.114285-1.6 0-0.342857-0.114286-0.571429-0.114286-0.914285 0-0.457143-0.114286-0.8-0.228572-1.257143-0.114286-0.457143-0.228571-0.8-0.342857-1.257143-0.114286-0.342857-0.114286-0.571429-0.228571-0.914286-0.114286-0.457143-0.342857-1.028571-0.457143-1.485714-0.114286-0.114286-0.114286-0.342857-0.228571-0.571429v-0.342857-0.114286L897.485714 40.685714c-3.542857-9.371429-12.342857-15.542857-22.514285-15.542857H149.828571c-10.057143 0-18.971429 6.171429-22.4 15.542857L10.742857 329.028571v0.114286l-0.114286 0.228572c-0.114286 0.114286-0.114286 0.342857-0.114285 0.457142-0.228571 0.571429-0.342857 1.028571-0.571429 1.6-0.114286 0.342857-0.114286 0.571429-0.228571 0.914286-0.114286 0.457143-0.228571 0.8-0.342857 1.257143-0.114286 0.457143-0.228571 0.914286-0.228572 1.257143 0 0.342857-0.114286 0.571429-0.114286 0.914286 0 0.571429-0.114286 1.142857-0.114285 1.714285V338.514286c0.228571 49.828571 25.942857 93.6 64.8 119.085714v516.342857c0 13.257143 10.742857 24 24 24h828.914285c13.257143 0 24-10.742857 24-24V559.542857c0-12.571429-10.285714-22.857143-22.857142-22.857143s-22.857143 10.285714-22.857143 22.857143v392.685714H119.428571V477.142857c10.4 2.4 21.257143 3.657143 32.342858 3.657143 50.285714 0 94.628571-26.171429 120.114285-65.6 25.485714 39.428571 69.828571 65.6 120.114286 65.6 49.942857 0 93.942857-25.714286 119.542857-64.685714 25.6 38.857143 69.6 64.685714 119.542857 64.685714 50.4 0 94.857143-26.285714 120.228572-65.828571 25.371429 39.542857 69.828571 65.828571 120.228571 65.828571 78.628571 0 142.514286-63.771429 142.857143-142.285714v-0.342857-0.342858c-0.114286 0-0.114286-0.228571-0.114286-0.342857z m-142.857143 97.6c-53.6 0-97.142857-43.542857-97.142857-97.142857 0-12.571429-10.285714-22.857143-22.857143-22.857143h-0.457142c-12.571429 0-22.857143 10.285714-22.857143 22.857143 0 53.6-43.542857 97.142857-97.142857 97.142857-49.942857 0-91.085714-37.828571-96.571429-86.4 0.228571-3.542857 0.457143-7.2 0.457143-10.742857 0-12.571429-10.285714-22.857143-22.857143-22.857143h-0.914286c-12.571429 0-22.857143 10.285714-22.857143 22.857143 0 3.657143 0.114286 7.2 0.457143 10.742857-5.371429 48.457143-46.628571 86.4-96.571428 86.4-53.6 0-97.142857-43.542857-97.142857-97.142857 0-12.571429-10.285714-22.857143-22.857143-22.857143h-0.114286-0.114286c-12.571429 0-22.857143 10.285714-22.857143 22.857143 0 53.6-43.542857 97.142857-97.142857 97.142857-52.114286 0-94.857143-41.371429-97.028571-92.914285L164.571429 70.857143h695.771428l108.228572 271.314286c-2.285714 51.542857-44.914286 92.914286-97.142858 92.914285z" p-id="1915" fill="#f2f2f2"></path><path d="M475.771429 922.285714c-2.971429 0-6.057143-0.457143-9.028572-1.485714-11.771429-3.885714-19.771429-14.857143-19.771428-27.2V765.371429h-64.342858c-10.971429 0-20.8-6.057143-25.714285-15.885715-4.914286-9.828571-3.771429-21.371429 2.857143-30.057143l164.914285-217.942857c7.885714-10.4 21.371429-14.171429 33.485715-9.371428 12.114286 4.8 19.314286 16.8 17.942857 29.828571l-13.371429 121.257143h76.457143c10.857143 0 20.685714 6.057143 25.6 15.771429 4.914286 9.714286 4 21.142857-2.514286 29.942857l-163.428571 221.828571c-5.6 7.428571-14.171429 11.542857-23.085714 11.542857z m-58.857143-202.628571h47.2c15.771429 0 28.685714 12.914286 28.685714 28.685714v93.485714l112.685714-153.028571h-61.714285c-8.114286 0-15.885714-3.428571-21.371429-9.485714-5.485714-6.057143-8-14.171429-7.2-22.285715l8.685714-78.742857-106.971428 141.371429z m113.714285-202.857143c0 0.114286 0 0.114286 0 0z" p-id="1916" fill="#f2f2f2"></path></svg>